# xmcd
#
# Track frame offsets: 
#        150
#        16810
#        46053
#        67137
#        103632
#        127055
#        157906
#        173400
#        193132
#        221528
#
# Disc length: 3196 seconds
#
# Revision: 0
# Processed by: cddbd v1.5.2PL0 Copyright (c) Steve Scherf et al.
# Submitted via: ExactAudioCopy v1.0b3
#
DISCID=820c7a0a
DTITLE=Grzegorz Kapołka Trio - Blue Blues
DYEAR=2001
DGENRE=Blues
TTITLE0=For Steve Ray
TTITLE1=Fix Fax
TTITLE2=Funny Town
TTITLE3=Blue Blues
TTITLE4=New In G
TTITLE5=Zucchero
TTITLE6=For John Lee
TTITLE7=Ach,Te Saloniki
TTITLE8=Beatifull Night Blues
TTITLE9=Warsaw Song (old song)
EXTD=
EXTT0=
EXTT1=
EXTT2=
EXTT3=
EXTT4=
EXTT5=
EXTT6=
EXTT7=
EXTT8=
EXTT9=
PLAYORDER=
